<svg t="1695864145865" class="icon" viewBox="0 0 1024 1024" version="1.1" xmlns="http://www.w3.org/2000/svg" p-id="1077" width="200" height="200"><path d="M51.2 256l62.037333-113.834667A25.6 25.6 0 0 1 136.533333 128h787.541334a25.6 25.6 0 0 1 22.869333 14.165333L1008.896 256z" fill="#B3D9FF" p-id="1078"></path><path d="M878.592 142.421333l64.085333 108.373334 38.912-2.901334-64.426666-116.650666-38.570667 11.178666z" fill="#96CAFF" p-id="1079"></path><path d="M51.2 281.6l947.2 0 0 631.466667-947.2 0 0-631.466667Z" fill="#96CAFF" p-id="1080"></path><path d="M25.6 435.2h972.8v25.6H25.6zM230.4 230.4h25.6v204.8h-25.6zM230.4 691.2h25.6v204.8h-25.6zM537.6 460.8h25.6v204.8h-25.6zM768 256h25.6v179.2h-25.6zM768 691.2h25.6v204.8h-25.6zM25.6 665.6h972.8v25.6H25.6zM768 128l38.4 114.688h-25.6L742.4 128h25.6z" fill="#175AA7" p-id="1081"></path><path d="M268.8 128h25.6L256 244.224h-25.6L268.8 128z" fill="#175AA7" p-id="1082"></path><path d="M51.2 256a25.6 25.6 0 0 0-25.6 25.6v588.8a25.6 25.6 0 0 0 25.6 25.6h921.6a25.6 25.6 0 0 0 25.6-25.6V281.6a25.6 25.6 0 0 0-25.6-25.6z m0-25.6h921.6a51.2 51.2 0 0 1 51.2 51.2v588.8a51.2 51.2 0 0 1-51.2 51.2H51.2a51.2 51.2 0 0 1-51.2-51.2V281.6a51.2 51.2 0 0 1 51.2-51.2z" fill="#175AA7" p-id="1083"></path><path d="M89.770667 154.453333l0.426666-0.853333h838.741334l57.770666 103.594667h29.184l-64.085333-114.773334a25.6 25.6 0 0 0-22.784-14.421333H90.282667a25.6 25.6 0 0 0-22.869334 14.165333L0 264.533333h29.354667z m0 0l0.426666-0.853333h838.741334l57.770666 103.594667h29.184l-64.085333-114.773334a25.6 25.6 0 0 0-22.784-14.421333H90.282667a25.6 25.6 0 0 0-22.869334 14.165333L0 264.533333h29.354667z" fill="#175AA7" p-id="1084"></path></svg>