<svg t="1695864202062" class="icon" viewBox="0 0 1024 1024" version="1.1" xmlns="http://www.w3.org/2000/svg" p-id="1558" width="200" height="200"><path d="M640 896h354.389333v51.2H640v-51.2zM51.2 896h354.389333v51.2H51.2v-51.2zM512 742.4h25.6v51.2h-25.6v-51.2zM469.333333 844.8h128a8.533333 8.533333 0 0 1 8.533334 8.533333v110.933334a8.533333 8.533333 0 0 1-8.533334 8.533333H469.333333a8.533333 8.533333 0 0 1-8.533333-8.533333v-110.933334a8.533333 8.533333 0 0 1 8.533333-8.533333z" fill="#96CAFF" p-id="1559"></path><path d="M204.8 94.890667l75.264-54.272A51.2 51.2 0 0 1 316.245333 25.6H789.333333a51.2 51.2 0 0 1 36.181334 15.018667l75.178666 54.272" fill="#B3D9FF" p-id="1560"></path><path d="M851.626667 81.066667L780.714667 25.6 716.8 40.618667l71.424 52.309333L851.626667 81.066667z" fill="#96CAFF" p-id="1561"></path><path d="M202.837333 61.354667l3.157334-2.645334A25.6 25.6 0 0 1 224.085333 51.2h571.733334a25.6 25.6 0 0 1 18.090666 7.509333l3.072 2.645334 46.421334 33.536h43.690666l-74.837333-54.272A51.2 51.2 0 0 0 796.074667 25.6h-571.733334A51.2 51.2 0 0 0 187.733333 40.618667l-75.093333 54.272h43.776z m0 0l3.157334-2.645334A25.6 25.6 0 0 1 224.085333 51.2h571.733334a25.6 25.6 0 0 1 18.090666 7.509333l3.072 2.645334 46.421334 33.536h43.690666l-74.837333-54.272A51.2 51.2 0 0 0 796.074667 25.6h-571.733334A51.2 51.2 0 0 0 187.733333 40.618667l-75.093333 54.272h43.776zM460.8 819.2a25.6 25.6 0 0 0-25.6 25.6v102.4a25.6 25.6 0 0 0 25.6 25.6h102.4a25.6 25.6 0 0 0 25.6-25.6V844.8a25.6 25.6 0 0 0-25.6-25.6z m0-25.6h102.4a51.2 51.2 0 0 1 51.2 51.2v102.4a51.2 51.2 0 0 1-51.2 51.2H460.8a51.2 51.2 0 0 1-51.2-51.2V844.8a51.2 51.2 0 0 1 51.2-51.2z" fill="#175AA7" p-id="1562"></path><path d="M614.4 870.4v51.2h384v-51.2z m-25.6-25.6h409.6a25.6 25.6 0 0 1 25.6 25.6v51.2a25.6 25.6 0 0 1-25.6 25.6H588.8zM486.4 793.6h51.2v-51.2h-51.2z m-25.6-76.8h102.4v102.4H460.8zM409.6 870.4H25.6v51.2h384zM25.6 844.8h409.6v102.4H25.6a25.6 25.6 0 0 1-25.6-25.6v-51.2a25.6 25.6 0 0 1 25.6-25.6z" fill="#175AA7" p-id="1563"></path><path d="M153.6 128l742.4 0 0 588.8-742.4 0 0-588.8Z" fill="#96CAFF" p-id="1564"></path><path d="M153.6 102.4a26.197333 26.197333 0 0 0-25.6 26.709333v560.981334A26.197333 26.197333 0 0 0 153.6 716.8h716.8a26.197333 26.197333 0 0 0 25.6-26.709333V129.109333a26.197333 26.197333 0 0 0-25.6-26.709333z m0-25.6h716.8a52.224 52.224 0 0 1 51.2 53.248v559.104a52.224 52.224 0 0 1-51.2 53.248H153.6a52.224 52.224 0 0 1-51.2-53.248V130.048A52.224 52.224 0 0 1 153.6 76.8z" fill="#175AA7" p-id="1565"></path><path d="M204.8 179.2v460.8h614.4V179.2z m0-25.6h614.4a25.6 25.6 0 0 1 25.6 25.6v460.8a25.6 25.6 0 0 1-25.6 25.6H204.8a25.6 25.6 0 0 1-25.6-25.6V179.2a25.6 25.6 0 0 1 25.6-25.6z" fill="#175AA7" p-id="1566"></path><path d="M532.650667 592.469333a12.8 12.8 0 0 0 25.088 0.768l45.824-196.266666L640.597333 435.2a12.8 12.8 0 0 0 9.130667 3.84H750.933333a12.8 12.8 0 0 0 0-25.6H655.104L605.866667 362.837333a12.8 12.8 0 0 0-21.589334 6.058667l-37.12 157.098667-51.2-297.813334a12.8 12.8 0 0 0-25.002666-0.938666L424.106667 413.525333H281.6a12.8 12.8 0 0 0 0 25.6h152.490667a12.8 12.8 0 0 0 12.458666-9.728l34.133334-137.130666z" fill="#175AA7" p-id="1567"></path></svg>