<svg t="1696733302157" class="icon" viewBox="0 0 1024 1024" version="1.1" xmlns="http://www.w3.org/2000/svg" p-id="18009" width="200" height="200"><path d="M960 85.333333a64 64 0 0 1 63.701333 57.856l0.298667 6.144v313.344l-21.333333 12.373334a42.666667 42.666667 0 0 0-4.181334 71.168l4.224 2.773333 21.290667 12.330667v313.344a64 64 0 0 1-57.856 63.701333l-6.144 0.298667h-896a64 64 0 0 1-63.701333-57.856l-0.298667-6.144v-313.344l21.333333-12.373334a42.666667 42.666667 0 0 0 4.181334-71.168l-4.224-2.773333-21.290667-12.330667v-313.344a64 64 0 0 1 57.856-63.701333l6.144-0.298667h896z m-21.333333 85.290667h-853.333334l0.042667 246.016 5.205333 4.906667a128 128 0 0 1 30.336 48.426666 38.826667 38.826667 0 0 1 7.082667-0.64h42.666667a42.666667 42.666667 0 0 1 0 85.333334h-42.666667c-2.432 0-4.821333-0.213333-7.125333-0.597334a127.146667 127.146667 0 0 1-23.765334 41.301334l-6.528 7.082666-5.205333 4.864-0.042667 245.973334h853.376l-0.042666-245.973334-5.248-4.864a128 128 0 0 1-30.336-48.426666 38.229333 38.229333 0 0 1-7.082667 0.64h-42.666667a42.666667 42.666667 0 0 1 0-85.333334h42.666667c2.432 0 4.821333 0.213333 7.125333 0.597334a127.146667 127.146667 0 0 1 23.765334-41.301334l6.528-7.082666 5.248-4.906667v-246.016z" fill="#e6e6e6" p-id="18010"></path><path d="M256 256m42.666667 0l0 0q42.666667 0 42.666666 42.666667l0 426.666666q0 42.666667-42.666666 42.666667l0 0q-42.666667 0-42.666667-42.666667l0-426.666666q0-42.666667 42.666667-42.666667Z" fill="#e6e6e6" p-id="18011"></path><path d="M597.333333 256c95.317333 0 170.666667 83.712 170.666667 184.874667 0 58.026667-24.832 111.914667-66.773333 146.773333l-114.090667 95.018667H725.333333a42.666667 42.666667 0 0 1 42.368 37.674666l0.298667 4.992a42.666667 42.666667 0 0 1-37.674667 42.368l-4.992 0.298667h-244.010666a46.933333 46.933333 0 0 1-30.250667-82.986667l195.584-162.986666c22.272-18.517333 36.010667-48.298667 36.010667-81.152 0-55.893333-39.253333-99.541333-85.333334-99.541334-30.677333 0-59.093333 19.370667-74.24 50.602667l-3.072 6.826667a42.666667 42.666667 0 0 1-79.146666-31.829334c26.709333-66.389333 87.381333-110.933333 156.458666-110.933333z" fill="#e6e6e6" p-id="18012"></path></svg>