<svg t="1696733054803" class="icon" viewBox="0 0 1024 1024" version="1.1" xmlns="http://www.w3.org/2000/svg" p-id="11414" width="200" height="200"><path d="M768 796.444444c-45.511111 0-85.333333-39.822222-85.333333-85.333333s39.822222-85.333333 85.333333-85.333333 85.333333 39.822222 85.333333 85.333333-39.822222 85.333333-85.333333 85.333333z m-341.333333-284.444444C381.155556 512 341.333333 472.177778 341.333333 426.666667S381.155556 341.333333 426.666667 341.333333 512 381.155556 512 426.666667 472.177778 512 426.666667 512zM682.666667 284.444444c-34.133333 0-56.888889-22.755556-56.888889-56.888888s22.755556-56.888889 56.888889-56.888889 56.888889 22.755556 56.888889 56.888889-22.755556 56.888889-56.888889 56.888888z m227.555555 170.666667c-34.133333 0-56.888889-22.755556-56.888889-56.888889s22.755556-56.888889 56.888889-56.888889 56.888889 22.755556 56.888889 56.888889-22.755556 56.888889-56.888889 56.888889zM227.555556 341.333333c-34.133333 0-56.888889-22.755556-56.888889-56.888889s22.755556-56.888889 56.888889-56.888888 56.888889 22.755556 56.888888 56.888888-22.755556 56.888889-56.888888 56.888889z m284.444444 398.222223c-34.133333 0-56.888889-22.755556-56.888889-56.888889s22.755556-56.888889 56.888889-56.888889 56.888889 22.755556 56.888889 56.888889-22.755556 56.888889-56.888889 56.888889z m170.666667-227.555556c-34.133333 0-56.888889-22.755556-56.888889-56.888889s22.755556-56.888889 56.888889-56.888889 56.888889 22.755556 56.888889 56.888889-22.755556 56.888889-56.888889 56.888889z m-398.222223 284.444444c-34.133333 0-56.888889-22.755556-56.888888-56.888888s22.755556-56.888889 56.888888-56.888889 56.888889 22.755556 56.888889 56.888889-22.755556 56.888889-56.888889 56.888888z m-227.555555 142.222223V56.888889h56.888889v853.333333h853.333333v56.888889H56.888889v-28.444444z" fill="#e6e6e6" p-id="11415"></path></svg>