<svg t="1696733253266" class="icon" viewBox="0 0 1024 1024" version="1.1" xmlns="http://www.w3.org/2000/svg" p-id="16873" width="200" height="200"><path d="M817.664 206.336c-81.408-81.408-189.952-126.464-305.664-126.464s-224.256 45.056-305.664 126.464c-168.448 168.448-168.448 442.368 0 610.816 81.408 81.408 189.952 126.464 305.664 126.464s224.256-45.056 305.664-126.464c81.408-81.408 126.464-189.952 126.464-305.152s-45.056-223.744-126.464-305.664z m36.352 306.176c0 90.624-35.328 176.64-99.84 241.664-65.024 64.512-151.04 99.84-242.176 99.84-91.136 0-177.152-35.328-242.176-99.84-64.512-64.512-100.352-151.04-100.352-242.176 0-91.136 35.84-177.152 100.352-241.152C334.336 205.824 420.352 170.496 512 170.496c91.136 0 177.152 35.328 242.176 99.84 64.512 64.512 99.84 150.528 99.84 242.176z" p-id="16874" fill="#e6e6e6"></path><path d="M559.104 492.032c0.512-18.432 0.512-44.032 0.512-78.848 0-103.424 0-112.64-0.512-116.224-0.512-12.8-6.144-24.576-15.36-32.768a47.0528 47.0528 0 0 0-34.304-12.8c-26.112 1.024-46.592 23.04-46.08 49.664 0.512 14.336 0 134.656 0 186.368v44.544l99.84 99.84c9.216 9.216 20.992 13.824 33.792 13.824s24.576-4.608 34.304-13.824c18.432-18.432 18.432-49.152 0-67.584l-72.192-72.192z" p-id="16875" fill="#e6e6e6"></path></svg>