<svg t="1696733089354" class="icon" viewBox="0 0 1024 1024" version="1.1" xmlns="http://www.w3.org/2000/svg" p-id="13796" width="200" height="200"><path d="M893.5 677.8h-32.1V543.1c0-36-29.3-65.2-65.2-65.2H537V346.2h33c36 0 65.2-29.3 65.2-65.2V163c0-36-29.3-65.2-65.2-65.2H452c-36 0-65.2 29.3-65.2 65.2v118c0 36 29.3 65.2 65.2 65.2h33.2v131.6H225.8c-36 0-65.2 29.3-65.2 65.2v134.7h-30.1c-36 0-65.2 29.3-65.2 65.3v118c0 36 29.3 65.3 65.2 65.3h118c36 0 65.2-29.3 65.2-65.3V743c0-36-29.3-65.3-65.2-65.3h-36V543.1c0-7.4 6-13.4 13.4-13.4h259.4v148.2h-32c-36 0-65.2 29.3-65.2 65.3v118c0 36 29.3 65.3 65.2 65.3h118c36 0 65.2-29.3 65.2-65.3V743c0-36-29.3-65.3-65.2-65.3H537V529.6h259.2c7.4 0 13.4 6 13.4 13.4v134.7h-34.1c-36 0-65.2 29.3-65.2 65.3v118c0 36 29.3 65.3 65.2 65.3h118c36 0 65.2-29.3 65.2-65.3V743c0.1-35.9-29.2-65.2-65.2-65.2z m13.4 65.2v118c0 7.4-6 13.4-13.4 13.4h-118c-7.4 0-13.4-6-13.4-13.4V743c0-7.4 6-13.4 13.4-13.4h118c7.4 0 13.4 6 13.4 13.4zM570 294.3H452c-7.4 0-13.4-6-13.4-13.4v-118c0-7.4 6-13.4 13.4-13.4h118c7.4 0 13.4 6 13.4 13.4v118c0 7.4-6 13.4-13.4 13.4zM453.2 729.6h118c7.4 0 13.4 6 13.4 13.4v118c0 7.4-6 13.4-13.4 13.4h-118c-7.4 0-13.4-6-13.4-13.4V743c0-7.4 6-13.4 13.4-13.4zM261.9 861.1c0 7.4-6 13.4-13.4 13.4h-118c-7.4 0-13.4-6-13.4-13.4V743c0-7.4 6-13.4 13.4-13.4h118c7.4 0 13.4 6 13.4 13.4v118.1z" fill="#e6e6e6" p-id="13797"></path></svg>